<svg width="25" height="25" viewBox="0 0 25 25" fill="none" xmlns="http://www.w3.org/2000/svg">
<path d="M12.5001 0C5.59739 0 0 5.73798 0 12.8165C0 18.4792 3.58167 23.2833 8.54833 24.978C9.17306 25.0967 9.40239 24.7 9.40239 24.3615C9.40239 24.0559 9.39078 23.0462 9.38539 21.9753C5.90783 22.7506 5.17406 20.4631 5.17406 20.4631C4.60544 18.9817 3.78617 18.5878 3.78617 18.5878C2.65206 17.7924 3.87167 17.8087 3.87167 17.8087C5.12689 17.8991 5.78783 19.1294 5.78783 19.1294C6.90272 21.0888 8.71206 20.5223 9.42539 20.1948C9.53756 19.3665 9.86156 18.8011 10.219 18.481C7.44256 18.157 4.52389 17.058 4.52389 12.1471C4.52389 10.7478 5.01217 9.60448 5.81183 8.70693C5.68206 8.38413 5.25417 7.08056 5.93294 5.31521C5.93294 5.31521 6.98261 4.97076 9.37139 6.62897C10.3685 6.34502 11.4378 6.20261 12.5002 6.19771C13.5625 6.20261 14.6327 6.34502 15.6316 6.62897C18.0174 4.97076 19.0657 5.31521 19.0657 5.31521C19.7461 7.08056 19.318 8.38413 19.1882 8.70693C19.9897 9.60448 20.4747 10.7478 20.4747 12.1471C20.4747 17.0696 17.5505 18.1536 14.767 18.4708C15.2153 18.8686 15.6148 19.6485 15.6148 20.8443C15.6148 22.5592 15.6003 23.9393 15.6003 24.3614C15.6003 24.7025 15.8253 25.1021 16.4589 24.9763C21.4229 23.2797 25 18.4772 25 12.8165C25 5.73798 19.4034 0 12.5001 0ZM4.68172 18.2574C4.65417 18.321 4.5565 18.3401 4.4675 18.2964C4.37683 18.2546 4.32589 18.1678 4.35533 18.104C4.38222 18.0384 4.48017 18.0201 4.57061 18.0641C4.66139 18.1058 4.71317 18.1934 4.68172 18.2574ZM5.29656 18.8198C5.23694 18.8765 5.12039 18.8502 5.04133 18.7606C4.95956 18.6712 4.94428 18.5518 5.00472 18.4943C5.06622 18.4376 5.17922 18.4641 5.26117 18.5535C5.34294 18.6439 5.35889 18.7625 5.29656 18.8198ZM5.71839 19.5396C5.64178 19.5942 5.51656 19.543 5.43917 19.4291C5.36256 19.3151 5.36256 19.1784 5.44083 19.1236C5.51844 19.0689 5.64183 19.1181 5.72028 19.2312C5.79661 19.3471 5.79661 19.4838 5.71839 19.5396ZM6.43178 20.3731C6.36328 20.4506 6.21733 20.4298 6.1105 20.3241C6.00122 20.2207 5.97078 20.0741 6.0395 19.9966C6.10883 19.9189 6.25561 19.9408 6.36322 20.0457C6.47172 20.1488 6.50483 20.2965 6.43178 20.3731ZM7.35378 20.6545C7.32356 20.7549 7.183 20.8005 7.04144 20.7579C6.90006 20.714 6.80756 20.5964 6.83611 20.495C6.8655 20.3939 7.00667 20.3464 7.14928 20.392C7.29044 20.4357 7.38317 20.5525 7.35378 20.6545ZM8.403 20.7739C8.4065 20.8796 8.28644 20.9672 8.13783 20.9692C7.98839 20.9726 7.8675 20.887 7.86583 20.783C7.86583 20.6763 7.98322 20.5895 8.13267 20.5869C8.28133 20.584 8.403 20.6688 8.403 20.7739ZM9.43378 20.7334C9.45156 20.8365 9.34828 20.9424 9.20072 20.9707C9.05561 20.9978 8.92128 20.9342 8.90283 20.8318C8.88483 20.7261 8.99 20.6202 9.13489 20.5929C9.28272 20.5666 9.41494 20.6286 9.43378 20.7334Z" fill="white"/>
</svg>
