<svg width="25" height="25" viewBox="0 0 25 25" fill="none" xmlns="http://www.w3.org/2000/svg">
<path d="M8.54133 10.6427C8.54133 9.24542 9.67402 8.11274 11.0713 8.11274H12.4598C13.0901 8.11274 13.6012 8.62378 13.6012 9.25417V10.3503C13.6012 10.3753 13.6214 10.3956 13.6464 10.3956V10.3956C13.6631 10.3956 13.6783 10.3866 13.6863 10.372C14.398 9.06624 16.1151 7.69836 18.6677 7.69836C24.0123 7.69836 25 11.156 25 15.6534V22.1726C25 23.6301 23.8185 24.8117 22.361 24.8117V24.8117C20.9035 24.8117 19.7219 23.6301 19.7219 22.1726V16.691C19.7219 14.7545 19.6881 12.2632 16.9792 12.2632C14.2325 12.2632 13.8134 14.3738 13.8134 16.5523V22.1756C13.8134 23.6314 12.6332 24.8117 11.1774 24.8117V24.8117C9.72148 24.8117 8.54127 23.6314 8.54127 22.1756L8.54133 10.6427Z" fill="white"/>
<path d="M0.419076 10.943C0.419076 9.48391 1.6019 8.30109 3.06098 8.30109V8.30109C4.52006 8.30109 5.70288 9.48391 5.70288 10.943V22.3581C5.70288 23.8172 4.52006 25 3.06098 25V25C1.6019 25 0.419076 23.8172 0.419076 22.3581V10.943ZM3.06236 0C4.75093 0 6.1218 1.34842 6.1218 3.00959C6.1218 4.67122 4.75093 6.01956 3.06236 6.01956C1.36708 6.01956 0 4.67122 0 3.00959C7.90859e-05 1.34842 1.36708 0 3.06236 0Z" fill="white"/>
</svg>
