<svg width="80" height="70" viewBox="0 0 80 70" fill="none" xmlns="http://www.w3.org/2000/svg">
<path d="M18.8963 0.0893707C18.1116 0.235424 17.3351 0.67358 16.7041 1.31459C15.6283 2.40998 15.4422 3.04288 15.3937 5.68805L15.3532 7.61919H17.1814H19.0095V5.91525C19.0095 4.13016 19.0662 3.81371 19.3735 3.692C19.4463 3.66766 28.676 3.64332 39.8876 3.64332H60.2722L60.4664 3.83805C60.5715 3.94353 60.6767 4.1545 60.709 4.30055C60.7333 4.45472 60.7414 10.4672 60.7333 17.6644L60.709 30.7604L60.4421 30.9957L60.1832 31.231H44.5308H28.8783V33.0161V34.8012H33.4486H38.019V35.6126V36.424H35.2282C32.2029 36.424 32.1625 36.4321 31.6367 36.8784C30.8763 37.5194 30.8601 38.8177 31.6043 39.5236C32.122 40.0185 31.7418 39.9942 39.8148 39.9942C46.8038 39.9942 47.2163 39.9861 47.5237 39.84C48.187 39.5398 48.5672 38.8663 48.5187 38.0793C48.4783 37.4788 48.2194 37.0245 47.7098 36.6918L47.3781 36.4646L44.5146 36.4402L41.6591 36.4159V35.6126V34.8012H51.1477C61.4451 34.8012 60.976 34.8174 61.9386 34.3468C62.8365 33.9005 63.9285 32.578 64.1146 31.7016C64.1388 31.5962 64.1874 31.3284 64.2359 31.1012C64.2844 30.8416 64.3006 25.7784 64.2925 17.1045L64.2682 3.52161L64.0984 3.07533C63.791 2.28016 63.5888 1.9556 63.0387 1.36327C62.6181 0.917 62.3592 0.730377 61.8496 0.478844C61.4856 0.308449 60.976 0.12994 60.7171 0.0812569C60.0943 -0.032341 19.4787 -0.0242271 18.8963 0.0893707Z" fill="#0071A1"/>
<path d="M7.41772 9.85867C6.57645 10.0615 5.92123 10.4429 5.20938 11.1488C4.69977 11.6519 4.48945 11.9359 4.26295 12.4065C3.68862 13.6317 3.71289 13.0313 3.73716 24.7804L3.76143 35.3286L3.98792 35.9777C4.43282 37.2516 5.29836 38.2497 6.43084 38.8095C7.51478 39.3532 7.36109 39.3451 15.2156 39.3451C22.0105 39.3451 22.326 39.337 22.9246 39.1828C23.8225 38.9556 24.4534 38.5824 25.1653 37.8845C25.6183 37.4302 25.8609 37.1218 26.0794 36.6674C26.6375 35.5234 26.6132 36.0508 26.6132 24.5775C26.6132 17.8267 26.5809 14.0536 26.5243 13.7128C26.2411 11.9359 24.8336 10.3861 23.054 9.89924C22.4635 9.72885 22.2775 9.72885 15.1671 9.73696C9.19733 9.74508 7.80599 9.76131 7.41772 9.85867ZM22.0914 13.0394C22.5282 13.1854 23.1268 13.7615 23.3452 14.2321L23.5394 14.6378V24.537C23.5394 34.3225 23.5313 34.4442 23.3695 34.8012C23.1592 35.2718 22.868 35.5802 22.3664 35.8398L21.962 36.0589L15.3774 36.0832C8.14574 36.1076 8.30752 36.1157 7.63612 35.6207C7.45816 35.4828 7.2074 35.1826 7.06988 34.9473L6.8353 34.5172L6.81103 24.6668C6.78676 13.8102 6.7625 14.3944 7.28829 13.7615C7.60377 13.3721 8.14574 13.0637 8.63109 12.9745C9.28631 12.8609 21.7517 12.9258 22.0914 13.0394Z" fill="#F7F7F7"/>
<path d="M14.6898 31.6692C14.3419 31.799 13.9536 32.1398 13.7838 32.4644C13.622 32.7808 13.6382 33.4543 13.8242 33.8113C14.1316 34.4036 14.528 34.6389 15.2398 34.6389C16.5503 34.6389 17.2217 33.0323 16.3157 32.0587C15.9274 31.6367 15.2317 31.4744 14.6898 31.6692Z" fill="#F7F7F7"/>
<path d="M0 55.208V60.9284H0.889805H1.77961V58.5348V56.1411H4.12546H6.47131V55.3297V54.5183H4.12546H1.77961V52.7738V51.0293H4.52992H7.28022V50.2584V49.4876H3.64011H0V55.208Z" fill="#F7F7F7"/>
<path d="M9.38342 55.208V60.9284H10.2328H11.0821V58.5348V56.1411H12.1742H13.2662L14.4553 58.5348L15.6525 60.9284H16.6394C17.1894 60.9284 17.6343 60.9122 17.6343 60.8878C17.6343 60.8635 17.4159 60.4172 17.1409 59.8898C15.5959 56.9201 15.1267 55.9951 15.1267 55.922C15.1267 55.8815 15.3289 55.7598 15.5797 55.6624C16.5989 55.2323 17.3027 54.1045 17.3108 52.8793C17.3189 51.5648 16.6475 50.4288 15.5554 49.9176C14.7708 49.5525 14.2126 49.4876 11.7131 49.4876H9.38342V55.208ZM14.5605 51.2483C15.6929 51.7514 15.968 53.2119 15.0944 54.0801C14.9002 54.283 14.6252 54.4534 14.4391 54.5102C14.2531 54.5589 13.4603 54.5994 12.6029 54.5994H11.0821V52.8062V51.0049L12.6433 51.0455C13.97 51.078 14.245 51.1023 14.5605 51.2483Z" fill="#F7F7F7"/>
<path d="M22.7304 49.4795C21.4928 49.7148 20.3199 50.5911 19.8588 51.6378C19.4948 52.4655 19.4543 52.8062 19.4543 55.208C19.4543 57.6666 19.5191 58.1372 19.9478 58.9973C20.3765 59.8411 21.5737 60.7012 22.6334 60.9203C23.96 61.1962 25.4241 60.8067 26.3463 59.9385C26.8883 59.4192 27.1148 59.0784 27.3574 58.3968C27.5354 57.9019 27.5435 57.7964 27.5435 55.208C27.5435 52.6115 27.5354 52.5141 27.3574 52.0111C26.8155 50.5019 25.4727 49.5363 23.8063 49.447C23.418 49.4308 22.9327 49.447 22.7304 49.4795ZM24.5262 51.2078C25.0359 51.4269 25.5131 51.9624 25.683 52.506C25.869 53.0821 25.9499 56.1898 25.8124 57.2284C25.6992 58.0804 25.5374 58.4293 25.0601 58.8755C24.6071 59.2894 24.2269 59.4192 23.4827 59.4192C22.4797 59.4111 21.695 58.8837 21.3957 58.0155C21.2097 57.4799 21.1126 55.4514 21.1935 53.9584C21.2582 52.8062 21.2825 52.6764 21.509 52.2058C21.7597 51.6946 22.1076 51.3538 22.5444 51.1834C23.2158 50.9238 23.8791 50.9319 24.5262 51.2078Z" fill="#F7F7F7"/>
<path d="M30.1725 55.208V60.9284H31.0218H31.8712L31.8874 56.9282L31.9116 52.9361L33.4971 55.3297C34.3627 56.6442 35.5518 58.4455 36.1261 59.3218L37.1696 60.9284H37.9623H38.747V55.208V49.4876H37.8976H37.0483V53.5203V57.553L35.7135 55.5326C34.9774 54.4128 33.7883 52.6034 33.0684 51.4999L31.7499 49.4876H30.9652H30.1725V55.208Z" fill="#F7F7F7"/>
<path d="M40.7692 50.2584V51.0293H42.3061H43.843V55.9788V60.9284H44.7328H45.6226V55.9788V51.0293H47.1596H48.6965V50.2584V49.4876H44.7328H40.7692V50.2584Z" fill="#F7F7F7"/>
<path d="M50.7189 55.208V60.9284H54.359H57.9991V60.1576V59.3867H55.2083H52.4176V57.6422V55.8977H54.8039H57.1902V55.1674V54.4372H54.8039H52.4176V52.7332V51.0293H55.2083H57.9991V50.2584V49.4876H54.359H50.7189V55.208Z" fill="#F7F7F7"/>
<path d="M60.3448 55.208V60.9284H61.1942H62.0436V56.8957V52.863L63.443 54.9889C64.2034 56.1573 65.3925 57.9749 66.08 59.0216L67.3339 60.9284H68.1266H68.9193V55.208V49.4876H68.07H67.2206L67.2044 53.504L67.1802 57.5286L66.6786 56.774C66.4117 56.3602 65.2145 54.5508 64.0335 52.7494L61.8899 49.4876H61.1133H60.3448V55.208Z" fill="#F7F7F7"/>
<path d="M71.9124 55.2161V60.9446L74.4038 60.9041C76.9842 60.8716 77.1946 60.8473 77.9064 60.474C79.136 59.8492 79.7103 58.8593 79.9287 57.0012C80.0743 55.776 79.9853 53.1876 79.7669 52.3843C79.5081 51.3944 79.1683 50.8508 78.4888 50.3152C77.6152 49.6337 76.8548 49.4876 74.0479 49.4876H71.9124V55.2161ZM76.5798 51.1753C76.9681 51.297 77.6152 51.7595 77.777 52.0273C78.1491 52.6521 78.2219 53.1633 78.2219 55.1431C78.2219 56.2304 78.1814 57.2041 78.1329 57.4556C77.9954 58.0966 77.7123 58.5916 77.3402 58.8512C76.7739 59.2488 76.4261 59.3218 74.97 59.3705L73.6111 59.4111V55.208V51.0049L74.97 51.0536C75.7142 51.078 76.4342 51.1348 76.5798 51.1753Z" fill="#F7F7F7"/>
<path d="M17.3537 64.0364L17.2588 64.1201L17.2474 66.5417C17.2322 69.16 17.2512 69.7832 17.3423 69.8794C17.4258 69.9756 19.4836 69.9714 19.8709 69.8752C20.7479 69.6619 21.4313 68.9048 21.6895 67.8634C21.7996 67.4201 21.8072 66.5041 21.7046 66.0733C21.5604 65.4585 21.1921 64.8353 20.7669 64.4798C20.4973 64.2497 20.3682 64.1828 20.0189 64.0783C19.7608 64.003 19.5899 63.9904 18.5876 63.9737C17.4866 63.9528 17.4448 63.957 17.3537 64.0364ZM19.4646 65.4878C20.1708 65.7178 20.4214 67.1231 19.9126 68.0223C19.7342 68.336 19.4456 68.4908 19.0622 68.4699L18.8154 68.4573L18.804 66.9934C18.8002 66.1904 18.804 65.5045 18.8154 65.4794C18.8382 65.4041 19.2292 65.4083 19.4646 65.4878Z" fill="#0071A1"/>
<path d="M22.6555 64.0656L22.553 64.1535V66.9683C22.553 69.4443 22.5606 69.7873 22.6137 69.8709L22.6707 69.9629H24.5462H26.4256L26.4863 69.8626C26.5357 69.7747 26.5433 69.6576 26.5319 69.1724C26.5243 68.7626 26.5053 68.5702 26.4711 68.5325C26.4331 68.4907 26.1522 68.474 25.2866 68.4656L24.1476 68.4531V68.0599V67.6626H24.998C26.099 67.6626 26.0269 67.7128 26.0269 66.9306C26.0269 66.1485 26.099 66.1987 24.998 66.1987H24.1476V65.8474V65.4919L25.2714 65.4793L26.3952 65.4668L26.4673 65.3664C26.5281 65.2827 26.5395 65.1991 26.5395 64.7348C26.5395 64.2706 26.5281 64.1869 26.4673 64.1033L26.3952 64.0029L24.5766 63.9904C22.777 63.9778 22.7542 63.982 22.6555 64.0656Z" fill="#0071A1"/>
<path d="M33.0234 64.0656L32.9209 64.1535V66.9683C32.9209 69.4443 32.9285 69.7873 32.9816 69.8709L33.0386 69.9629H34.9141H36.7935L36.8542 69.8626C36.9036 69.7747 36.9112 69.6576 36.8998 69.1724C36.8922 68.7626 36.8732 68.5702 36.839 68.5325C36.8011 68.4907 36.5201 68.474 35.6545 68.4656L34.5155 68.4531V68.0599V67.6626H35.3659C36.467 67.6626 36.3948 67.7128 36.3948 66.9306C36.3948 66.1485 36.467 66.1987 35.3659 66.1987H34.5155V65.8474V65.4919L35.6393 65.4793L36.7631 65.4668L36.8352 65.3664C36.896 65.2827 36.9074 65.1991 36.9074 64.7348C36.9074 64.2706 36.896 64.1869 36.8352 64.1033L36.7631 64.0029L34.9445 63.9904C33.1449 63.9778 33.1221 63.982 33.0234 64.0656Z" fill="#0071A1"/>
<path d="M27.7758 64.0033C27.419 64.02 27.3506 64.0618 27.3582 64.2584C27.362 64.4425 28.8427 69.842 28.9072 69.9131C28.9946 70.0093 30.3348 70.0052 30.4221 69.909C30.4563 69.8713 30.5588 69.5702 30.6461 69.2398C31.7092 65.371 31.9977 64.2961 31.9977 64.2291C31.9977 64.0828 31.88 64.0284 31.5004 63.9991C31.022 63.9615 30.7562 63.9991 30.6879 64.1162C30.6575 64.1622 30.4525 64.8983 30.2285 65.7516C30.0045 66.6006 29.8108 67.3116 29.7957 67.3325C29.7843 67.3493 29.5944 66.6634 29.378 65.8059C28.9528 64.112 28.9414 64.0744 28.8541 64.0368C28.7706 64.0033 28.1669 63.9824 27.7758 64.0033Z" fill="#0071A1"/>
<path d="M38.3224 64.0896L38.2313 64.1942L38.2389 67.0215C38.2503 69.7652 38.2541 69.8489 38.3224 69.9074C38.3832 69.9576 38.6793 69.966 40.0347 69.966C41.9976 69.966 41.8116 70.0329 41.8305 69.3303C41.8381 69.0751 41.8343 68.8075 41.8229 68.728C41.7736 68.4603 41.7774 68.4603 40.7561 68.4603H39.8297L39.8183 66.3021L39.8069 64.144L39.7158 64.0645C39.6361 63.9934 39.5601 63.985 39.021 63.985C38.4287 63.985 38.4174 63.985 38.3224 64.0896Z" fill="#0071A1"/>
<path d="M44.5215 63.9229C43.5382 64.2073 42.8928 65.2111 42.794 66.5997C42.7447 67.2982 42.8624 67.9967 43.1395 68.6157C43.4623 69.3434 43.9596 69.7909 44.6164 69.9415C45.4631 70.1381 46.3515 69.8286 46.8261 69.1719C47.4639 68.2852 47.6499 66.8716 47.2893 65.6754C47.0007 64.726 46.4806 64.1279 45.7516 63.9187C45.4707 63.8393 44.8025 63.8393 44.5215 63.9229ZM45.4707 65.437C45.744 65.6586 45.8655 66.2024 45.839 67.0765C45.8162 67.8294 45.7554 68.0719 45.5276 68.3187C45.3758 68.486 45.353 68.4986 45.1594 68.4986C44.8822 68.4986 44.7265 68.3814 44.5899 68.0803C44.4494 67.7708 44.3924 67.3316 44.419 66.721C44.4494 65.9305 44.5747 65.575 44.8822 65.3993C45.0606 65.299 45.3188 65.3157 45.4707 65.437Z" fill="#0071A1"/>
<path d="M48.9167 64.0574C48.856 64.1285 48.8522 64.3502 48.8522 66.9559C48.8522 69.3273 48.8598 69.7916 48.9053 69.8627C48.9547 69.938 49.0116 69.9422 49.6267 69.9422C50.1203 69.9422 50.3025 69.9296 50.3405 69.8878C50.3784 69.846 50.3936 69.5825 50.4088 68.8631L50.4278 67.8928L51.1529 67.8718L51.8781 67.8509L52.178 67.6878C52.6754 67.4159 52.9525 67.0186 53.0892 66.3787C53.169 66.0106 53.1424 65.5129 53.0285 65.1825C52.8652 64.7057 52.4438 64.2624 52.0034 64.0992C51.7718 64.0114 51.6769 64.0072 50.3708 63.9905C49.0458 63.9779 48.9775 63.9821 48.9167 64.0574ZM51.3845 65.5129C51.5364 65.6384 51.6047 65.8852 51.5402 66.0943C51.4529 66.3745 51.3428 66.4289 50.8226 66.4414L50.3708 66.4582V65.9604C50.3708 65.6844 50.3822 65.446 50.4012 65.4293C50.4164 65.4125 50.6176 65.4042 50.853 65.4125C51.2099 65.4251 51.2934 65.4376 51.3845 65.5129Z" fill="#0071A1"/>
<path d="M54.0123 64.0656L53.9098 64.1535V66.9683C53.9098 69.4443 53.9174 69.7873 53.9705 69.8709L54.0275 69.9629H55.903H57.7824L57.8431 69.8626C57.8925 69.7747 57.9001 69.6576 57.8887 69.1724C57.8811 68.7626 57.8621 68.5702 57.8279 68.5325C57.79 68.4907 57.509 68.474 56.6434 68.4656L55.5044 68.4531V68.0599V67.6626H56.3548C57.4559 67.6626 57.3837 67.7128 57.3837 66.9306C57.3837 66.1485 57.4559 66.1987 56.3548 66.1987H55.5044V65.8474V65.4919L56.6282 65.4793L57.752 65.4668L57.8241 65.3664C57.8849 65.2827 57.8963 65.1991 57.8963 64.7348C57.8963 64.2706 57.8849 64.1869 57.8241 64.1033L57.752 64.0029L55.9334 63.9904C54.1338 63.9778 54.111 63.982 54.0123 64.0656Z" fill="#0071A1"/>
<path d="M59.0431 64.0663C58.971 64.1583 58.9672 64.2378 58.9672 66.9773C58.9672 69.6248 58.971 69.7963 59.0355 69.8674C59.0925 69.9343 59.1874 69.9427 59.7265 69.9552C60.3491 69.9678 60.3529 69.9678 60.4479 69.8632L60.5428 69.7586V68.7507V67.7469H60.7858C60.9338 67.7469 61.0401 67.7678 61.0629 67.7971C61.0857 67.8263 61.2565 68.2948 61.4464 68.8343C61.6628 69.4408 61.826 69.8465 61.8754 69.8883C61.9437 69.9552 62.0424 69.9636 62.6081 69.9636C63.3333 69.9636 63.4282 69.9343 63.4282 69.7168C63.4282 69.6499 63.2498 69.1229 63.0296 68.5415C62.8094 67.9644 62.6309 67.4666 62.6309 67.4374C62.6309 67.4081 62.7107 67.3161 62.8056 67.2324C63.2118 66.8853 63.3978 66.4503 63.4016 65.8647C63.4016 65.4214 63.3181 65.0993 63.1055 64.7564C62.9119 64.4427 62.6575 64.2294 62.331 64.1039C62.088 64.0077 62.0349 64.0035 60.5997 63.991C59.119 63.9784 59.1152 63.9784 59.0431 64.0663ZM61.6058 65.4465C61.7805 65.5511 61.845 65.8898 61.7349 66.1199C61.6438 66.3123 61.4843 66.3666 60.9794 66.3666H60.5428V65.894C60.5428 65.6305 60.5542 65.4047 60.5693 65.3921C60.6073 65.3503 61.5261 65.4005 61.6058 65.4465Z" fill="#0071A1"/>
<path d="M65.2758 66.9243V67.5329H72.556H79.8362V66.9243V66.3158H72.556H65.2758V66.9243Z" fill="#0071A1"/>
<path d="M0 66.9243V67.5329H7.28022H14.5604V66.9243V66.3158H7.28022H0V66.9243Z" fill="#0071A1"/>
</svg>
