<svg width="25" height="25" viewBox="0 0 25 25" fill="none" xmlns="http://www.w3.org/2000/svg">
<g clip-path="url(#clip0_3457_927)">
<path d="M21.25 0H3.75C1.67893 0 0 1.67893 0 3.75V21.25C0 23.3211 1.67893 25 3.75 25H21.25C23.3211 25 25 23.3211 25 21.25V3.75C25 1.67893 23.3211 0 21.25 0Z" fill="white"/>
<path d="M17.4414 14.4971C16.6113 14.4971 15.8301 14.1455 15.127 13.5742L15.2979 12.7637L15.3027 12.7344C15.459 11.875 15.9424 10.4297 17.4414 10.4297C18.5645 10.4297 19.4775 11.3428 19.4775 12.4658C19.4775 13.5889 18.5645 14.4971 17.4414 14.4971ZM17.4414 8.36914C15.5273 8.36914 14.0479 9.60937 13.4424 11.6553C12.5244 10.2734 11.8262 8.61816 11.4209 7.22168H9.36035V12.5781C9.36035 13.6377 8.50098 14.4971 7.44141 14.4971C6.38184 14.4971 5.52246 13.6377 5.52246 12.5781V7.2168H3.4668V12.5732C3.4668 14.7656 5.24902 16.5674 7.44141 16.5674C9.63379 16.5674 11.416 14.7656 11.416 12.5732V11.6748C11.8164 12.5098 12.3047 13.3545 12.9004 14.0967L11.6406 20.0244H13.7451L14.6582 15.7275C15.459 16.2402 16.377 16.5625 17.4316 16.5625C19.6875 16.5625 21.5234 14.7168 21.5234 12.4561C21.5283 10.2051 19.6973 8.36914 17.4414 8.36914Z" fill="#0071A1"/>
</g>
<defs>
<clipPath id="clip0_3457_927">
<rect width="25" height="25" fill="white"/>
</clipPath>
</defs>
</svg>
